<?xml version="1.0" encoding="utf-8"?>
<!-- Generator: Adobe Illustrator 19.1.0, SVG Export Plug-In . SVG Version: 6.00 Build 0)  -->
<!DOCTYPE svg PUBLIC "-//W3C//DTD SVG 1.1//EN" "http://www.w3.org/Graphics/SVG/1.1/DTD/svg11.dtd">
<svg version="1.1" xmlns="http://www.w3.org/2000/svg" xmlns:xlink="http://www.w3.org/1999/xlink" x="0px" y="0px"
	 viewBox="0 0 183.3 61.9" enable-background="new 0 0 183.3 61.9" xml:space="preserve">
<g id="BKGD">
</g>
<g id="Gov_x27_t_Buildings">
</g>
<g id="Layer_1">
</g>
<g id="Copy_x2F_Registration">
	<g>
		<g opacity="0.25">
			<text transform="matrix(0.583 0 0 0.583 174.2976 21.7934)" font-family="'Bitter-Bold'" font-size="11.119px">R</text>
			<path d="M15.4,17.7l0.5,3c0,0,3.7-3.6,8.1-3.6c7.6,0,11.3,5.6,11.3,14.4c0,10.1-4.8,16.1-14.3,16.1c-1.6,0-3.2-0.2-4.6-0.5V54
				l5.2,1.3v4.4H3.9v-4.4L8.2,54V23.7l-4.4-1.4V18L15.4,17.7z M16.3,40.6c0.9,0.4,2.2,0.8,4.2,0.8c4.7,0,6.3-3.3,6.3-8.8
				c0-5.5-1.5-8.9-5.4-8.9c-3.5,0-5.1,3-5.1,3V40.6z"/>
			<path d="M68.7,32c0,9.9-5.7,15.9-14.6,15.9c-8.9,0-14-4.7-14-15.1c0-9.9,5.9-15.6,14.8-15.6C63.7,17.2,68.7,22.5,68.7,32z
				 M48.6,32.5c0,6,1.8,8.8,5.7,8.8c3.9,0,5.9-2.5,5.9-9c0-5.6-1.6-8.5-5.6-8.5C50.6,23.7,48.6,25.9,48.6,32.5z"/>
			<path d="M116.2,42.9v4.4H99.8v-4.4l4.4-1.4V23.7l-4.4-1.4V18l12.6-0.3v23.8L116.2,42.9z M107.9,3.8c2.8,0,4.6,1.5,4.6,4.9
				c0,3.2-2.4,5-4.6,5c-3,0-4.7-1.8-4.7-5C103.2,5.6,105.4,3.8,107.9,3.8z"/>
			<path d="M141.1,44.4c-2.7,2-5.7,3.4-9.3,3.4c-6.3,0-8.1-4.4-8.1-10.7V24.6h-5.1v-5.3l5.1-0.7V11l8.2-1.5v9h7.7v6h-7.7v12
				c0,3.5,0.6,4.9,2.9,4.9c1.5,0,3.6-0.9,4.3-1.3L141.1,44.4z"/>
			<path d="M152.1,34.3c0.3,4.4,2.8,7,6.6,7c4.5,0,9.2-2.6,9.2-2.6l2.4,4.5c0,0-5.5,4.6-12.5,4.6c-9.4,0-14.2-5.5-14.2-14.8
				c0-9.6,5.4-15.9,14.6-15.9c8.2,0,12.4,5,12.4,12.9c0,2.1-0.3,4.1-0.3,4.3H152.1z M162.2,29.2c0-3.1-1.3-5.5-4.5-5.5
				c-3.1,0-5,2.2-5.4,5.5H162.2z"/>
			<path fill-rule="evenodd" clip-rule="evenodd" d="M78.9,40.5c0.4-1.2,0.6-2.3,0.7-3.5c0.4-6.1,0.1-12.2,0.2-18.3
				c0-2.2-0.2-4.5-0.9-6.6c-0.3-1.1-0.8-2.1-1.5-2.9c-0.9-1-2-1.6-3.3-1.9c-0.5-0.1-1-0.2-1.5-0.3c0-1,0-2.1,0-3.2
				c7.7,0,13.7,0,21.4,0c0,0.5,0,1,0,1.5c0,0.7-0.7,1.2-1.5,1.2c-1.7,0-1.6,0-3.3,0c-1.9,0-3.7,0-5.6,0c0,0-0.1,0-0.1,0
				c0,0.4,0,0.9,0,1.4c0.1,0,0.3,0,0.4,0c2.9,0,3.9,0,6.8,0c0.5,0,0.8,0.2,0.8,0.6c0,0.4-0.3,0.6-0.8,0.6c-2.9,0-3.9,0-6.8,0
				c-0.1,0-0.3,0-0.4,0"/>
			<path fill-rule="evenodd" clip-rule="evenodd" d="M78.9,10.6c0.4,1.2,0.6,2.3,0.7,3.5c0.4,6.1,0.1,12.2,0.2,18.3
				c0,2.2-0.2,4.5-0.9,6.6c-0.3,1.1-0.8,2.1-1.5,2.9c-0.9,1-2,1.6-3.3,1.9c-0.5,0.1-1,0.2-1.5,0.3c0,1,0,2.1,0,3.2
				c7.7,0,13.7,0,21.4,0c0-0.5,0-1,0-1.5c0-0.7-0.7-1.2-1.5-1.2c-1.7,0-1.6,0-3.3,0c-1.9,0-3.7,0-5.6,0c0,0-0.1,0-0.1,0
				c0-0.4,0-0.9,0-1.4c0.1,0,0.3,0,0.4,0c2.9,0,3.9,0,6.8,0c0.5,0,0.8-0.2,0.8-0.6c0-0.4-0.3-0.6-0.8-0.6c-2.9,0-3.9,0-6.8,0
				c-0.1,0-0.3,0-0.4,0"/>
			<path d="M85.1,42.8v4.5h-13v-4.5l4.5-1.4V9.8l-4.5-1.1V3.8h13v37.6V42.8z"/>
			<polygon fill-rule="evenodd" clip-rule="evenodd" points="92.8,3.8 94.5,3.8 93.6,6.4 91.4,6.4 			"/>
			<polygon fill-rule="evenodd" clip-rule="evenodd" points="90.1,7.8 91.8,7.8 91.4,9 89.1,9 			"/>
			<polygon fill-rule="evenodd" clip-rule="evenodd" points="90.1,43.2 91.9,43.2 91.4,42.1 89.1,42.1 			"/>
			<rect x="88.9" y="10.4" fill-rule="evenodd" clip-rule="evenodd" width="1.1" height="29.7"/>
			<rect x="86.5" y="10.4" fill-rule="evenodd" clip-rule="evenodd" width="1.1" height="29.7"/>
			<circle fill="none" stroke="#000000" stroke-width="0.7854" stroke-miterlimit="10" cx="176.3" cy="19.5" r="4.1"/>
		</g>
		<g>
			<g>
				<text transform="matrix(0.583 0 0 0.583 173.5777 21.0734)" fill="#FFFFFF" font-family="'Bitter-Bold'" font-size="11.119px">R</text>
				<g>
					<path fill="#FFFFFF" d="M14.7,17l0.5,3c0,0,3.7-3.6,8.1-3.6c7.6,0,11.3,5.6,11.3,14.4c0,10.1-4.8,16.1-14.3,16.1
						c-1.6,0-3.2-0.2-4.6-0.5v6.9l5.2,1.3v4.4H3.2v-4.4l4.2-1.3V23l-4.4-1.4v-4.4L14.7,17z M15.6,39.9c0.9,0.4,2.2,0.8,4.2,0.8
						c4.7,0,6.3-3.3,6.3-8.8c0-5.5-1.5-8.9-5.4-8.9c-3.5,0-5.1,3-5.1,3V39.9z"/>
				</g>
				<g>
					<path fill="#FFFFFF" d="M67.9,31.2c0,9.9-5.7,15.9-14.6,15.9c-8.9,0-14-4.7-14-15.1c0-9.9,5.9-15.6,14.8-15.6
						C63,16.5,67.9,21.8,67.9,31.2z M47.8,31.8c0,6,1.8,8.8,5.7,8.8c3.9,0,5.9-2.5,5.9-9c0-5.6-1.6-8.5-5.6-8.5
						C49.9,23,47.8,25.2,47.8,31.8z"/>
					<path fill="#FFFFFF" d="M115.5,42.2v4.4H99v-4.4l4.4-1.4V23L99,21.7v-4.4l12.6-0.3v23.8L115.5,42.2z M107.1,3
						c2.8,0,4.6,1.5,4.6,4.9c0,3.2-2.4,5-4.6,5c-3,0-4.7-1.8-4.7-5C102.4,4.9,104.7,3,107.1,3z"/>
					<path fill="#FFFFFF" d="M140.4,43.7c-2.7,2-5.7,3.4-9.3,3.4c-6.3,0-8.1-4.4-8.1-10.7V23.8h-5.1v-5.3l5.1-0.7v-7.6l8.2-1.5v9
						h7.7v6h-7.7v12c0,3.5,0.6,4.9,2.9,4.9c1.5,0,3.6-0.9,4.3-1.3L140.4,43.7z"/>
					<path fill="#FFFFFF" d="M151.4,33.6c0.3,4.4,2.8,7,6.6,7c4.5,0,9.2-2.6,9.2-2.6l2.4,4.5c0,0-5.5,4.6-12.5,4.6
						c-9.4,0-14.2-5.5-14.2-14.8c0-9.6,5.4-15.9,14.6-15.9c8.2,0,12.4,5,12.4,12.9c0,2.1-0.3,4.1-0.3,4.3H151.4z M161.4,28.5
						c0-3.1-1.3-5.5-4.5-5.5c-3.1,0-5,2.2-5.4,5.5H161.4z"/>
				</g>
				<g id="Mpw3dm_32_">
					<g>
						<path fill-rule="evenodd" clip-rule="evenodd" fill="#FFFFFF" d="M78.2,39.8c0.4-1.2,0.6-2.3,0.7-3.5C79.2,30.1,79,24,79,18
							c0-2.2-0.2-4.5-0.9-6.6c-0.3-1.1-0.8-2.1-1.5-2.9c-0.9-1-2-1.6-3.3-1.9c-0.5-0.1-1-0.2-1.5-0.3c0-1,0-2.1,0-3.2
							c7.7,0,13.7,0,21.4,0c0,0.5,0,1,0,1.5c0,0.7-0.7,1.2-1.5,1.2c-1.7,0-1.6,0-3.3,0c-1.9,0-3.7,0-5.6,0c0,0-0.1,0-0.1,0
							c0,0.4,0,0.9,0,1.4c0.1,0,0.3,0,0.4,0c2.9,0,3.9,0,6.8,0c0.5,0,0.8,0.2,0.8,0.6c0,0.4-0.3,0.6-0.8,0.6c-2.9,0-3.9,0-6.8,0
							c-0.1,0-0.3,0-0.4,0"/>
					</g>
				</g>
				<g id="Mpw3dm_31_">
					<g>
						<path fill-rule="evenodd" clip-rule="evenodd" fill="#FFFFFF" d="M78.2,9.8c0.4,1.2,0.6,2.3,0.7,3.5
							c0.4,6.1,0.1,12.2,0.2,18.3c0,2.2-0.2,4.5-0.9,6.6c-0.3,1.1-0.8,2.1-1.5,2.9c-0.9,1-2,1.6-3.3,1.9c-0.5,0.1-1,0.2-1.5,0.3
							c0,1,0,2.1,0,3.2c7.7,0,13.7,0,21.4,0c0-0.5,0-1,0-1.5c0-0.7-0.7-1.2-1.5-1.2c-1.7,0-1.6,0-3.3,0c-1.9,0-3.7,0-5.6,0
							c0,0-0.1,0-0.1,0c0-0.4,0-0.9,0-1.4c0.1,0,0.3,0,0.4,0c2.9,0,3.9,0,6.8,0c0.5,0,0.8-0.2,0.8-0.6c0-0.4-0.3-0.6-0.8-0.6
							c-2.9,0-3.9,0-6.8,0c-0.1,0-0.3,0-0.4,0"/>
					</g>
				</g>
				<path fill="#FFFFFF" d="M84.4,42.1v4.5h-13v-4.5l4.5-1.4V9.1L71.4,8V3h13v37.6V42.1z"/>
				<polygon fill-rule="evenodd" clip-rule="evenodd" fill="#FFFFFF" points="92,3 93.8,3 92.9,5.7 90.7,5.7 				"/>
				<polygon fill-rule="evenodd" clip-rule="evenodd" fill="#FFFFFF" points="89.4,7.1 91.1,7.1 90.7,8.3 88.4,8.3 				"/>
				<polygon fill-rule="evenodd" clip-rule="evenodd" fill="#FFFFFF" points="89.4,42.5 91.1,42.5 90.7,41.3 88.4,41.3 				"/>
				<rect x="88.2" y="9.6" fill-rule="evenodd" clip-rule="evenodd" fill="#FFFFFF" width="1.1" height="29.7"/>
				<rect x="85.7" y="9.6" fill-rule="evenodd" clip-rule="evenodd" fill="#FFFFFF" width="1.1" height="29.7"/>
				<circle fill="none" stroke="#FFFFFF" stroke-width="0.7854" stroke-miterlimit="10" cx="175.6" cy="18.8" r="4.1"/>
			</g>
		</g>
	</g>
</g>
<g id="Landscape">
</g>
</svg>
